<svg xmlns="http://www.w3.org/2000/svg" xmlns:svg="http://www.w3.org/2000/svg" xmlns:xlink="http://www.w3.org/1999/xlink" id="svg2" width="16" height="16" version="1.0"><defs id="defs4"><linearGradient id="linearGradient6364"><stop style="stop-color:#fff;stop-opacity:1" id="stop6366" offset="0"/><stop style="stop-color:#fff;stop-opacity:0" id="stop6368" offset="1"/></linearGradient><linearGradient id="linearGradient6344"><stop style="stop-color:#000;stop-opacity:1" id="stop6346" offset="0"/><stop style="stop-color:#000;stop-opacity:0" id="stop6348" offset="1"/></linearGradient><linearGradient id="linearGradient6334"><stop id="stop6336" offset="0" style="stop-color:#fff;stop-opacity:.30715936"/><stop id="stop6338" offset="1" style="stop-color:#fff;stop-opacity:1"/></linearGradient><linearGradient id="linearGradient6292"><stop id="stop6294" offset="0" style="stop-color:#f24646;stop-opacity:1"/><stop id="stop6296" offset="1" style="stop-color:#d50f0f;stop-opacity:1"/></linearGradient><linearGradient id="linearGradient6268"><stop style="stop-color:#fff;stop-opacity:1" id="stop6270" offset="0"/><stop style="stop-color:#fff;stop-opacity:0" id="stop6272" offset="1"/></linearGradient><linearGradient id="linearGradient6274" x1="25.984" x2="25.984" y1="23.344" y2="30" gradientUnits="userSpaceOnUse" xlink:href="#linearGradient6268"/><radialGradient id="radialGradient6290" cx="14.375" cy="5.892" r="21" fx="14.375" fy="5.892" gradientTransform="matrix(1,0,0,0.8809524,0,2.5595242)" gradientUnits="userSpaceOnUse" xlink:href="#linearGradient6292"/><radialGradient id="radialGradient6332" cx="6.468" cy="5.607" r="19.998" fx="6.468" fy="5.607" gradientTransform="matrix(0.2210006,1.0989351,-1.4305862,0.3616688,13.060358,-2.6858335)" gradientUnits="userSpaceOnUse" xlink:href="#linearGradient6334"/><linearGradient id="linearGradient6350" x1="26" x2="26" y1="24.406" y2="27.313" gradientUnits="userSpaceOnUse" xlink:href="#linearGradient6344"/><linearGradient id="linearGradient6370" x1="21.469" x2="26.582" y1="22" y2="27.344" gradientUnits="userSpaceOnUse" xlink:href="#linearGradient6364"/><radialGradient id="radialGradient5540" cx="14.375" cy="5.892" r="21" fx="14.375" fy="5.892" gradientTransform="matrix(1,0,0,0.8809524,0,2.5595242)" gradientUnits="userSpaceOnUse" xlink:href="#linearGradient6292"/><radialGradient id="radialGradient5542" cx="6.468" cy="5.607" r="19.998" fx="6.468" fy="5.607" gradientTransform="matrix(0.2210006,1.0989351,-1.4305862,0.3616688,13.060358,-2.6858335)" gradientUnits="userSpaceOnUse" xlink:href="#linearGradient6334"/><linearGradient id="linearGradient5544" x1="25.984" x2="25.984" y1="23.344" y2="30" gradientUnits="userSpaceOnUse" xlink:href="#linearGradient6268"/><linearGradient id="linearGradient5546" x1="26" x2="26" y1="24.406" y2="27.313" gradientUnits="userSpaceOnUse" xlink:href="#linearGradient6344"/><linearGradient id="linearGradient5548" x1="21.469" x2="26.582" y1="22" y2="27.344" gradientUnits="userSpaceOnUse" xlink:href="#linearGradient6364"/><linearGradient id="linearGradient5551" x1="21.469" x2="26.582" y1="22" y2="27.344" gradientTransform="matrix(0.6302549,0,0,0.6686395,0.7646476,0.2721762)" gradientUnits="userSpaceOnUse" xlink:href="#linearGradient6364"/><linearGradient id="linearGradient5554" x1="26" x2="26" y1="24.406" y2="27.313" gradientTransform="matrix(0.4979819,0,0,1.0197734,4.5504528,-8.5338833)" gradientUnits="userSpaceOnUse" xlink:href="#linearGradient6344"/><radialGradient id="radialGradient5566" cx="6.468" cy="5.607" r="19.998" fx="6.468" fy="5.607" gradientTransform="matrix(0.1418944,0.6534209,-0.9185144,0.2150464,8.9962169,-0.772658)" gradientUnits="userSpaceOnUse" xlink:href="#linearGradient6334"/><radialGradient id="radialGradient5569" cx="14.375" cy="5.892" r="21" fx="14.375" fy="5.892" gradientTransform="matrix(0.6585366,0,0,0.5878349,0.1951221,1.8724468)" gradientUnits="userSpaceOnUse" xlink:href="#linearGradient6292"/><linearGradient id="linearGradient5573" x1="25.984" x2="25.984" y1="23.344" y2="30" gradientUnits="userSpaceOnUse" xlink:href="#linearGradient6268"/><radialGradient id="radialGradient5547" cx="14.375" cy="5.892" r="21" fx="14.375" fy="5.892" gradientTransform="matrix(0.6585366,0,0,0.5878349,0.1951221,1.8724468)" gradientUnits="userSpaceOnUse" xlink:href="#linearGradient6292"/><radialGradient id="radialGradient5549" cx="6.468" cy="5.607" r="19.998" fx="6.468" fy="5.607" gradientTransform="matrix(0.1418944,0.6534209,-0.9185144,0.2150464,8.9962169,-0.772658)" gradientUnits="userSpaceOnUse" xlink:href="#linearGradient6334"/><linearGradient id="linearGradient5552" x1="25.984" x2="25.984" y1="23.344" y2="30" gradientUnits="userSpaceOnUse" xlink:href="#linearGradient6268"/><linearGradient id="linearGradient5555" x1="26" x2="26" y1="24.406" y2="27.313" gradientTransform="matrix(0.4979819,0,0,1.0197734,4.5504528,-8.5338833)" gradientUnits="userSpaceOnUse" xlink:href="#linearGradient6344"/><linearGradient id="linearGradient5557" x1="21.469" x2="26.582" y1="22" y2="27.344" gradientTransform="matrix(0.6302549,0,0,0.6686395,0.7646476,0.2721762)" gradientUnits="userSpaceOnUse" xlink:href="#linearGradient6364"/><linearGradient id="linearGradient5560" x1="21.469" x2="26.582" y1="22" y2="27.344" gradientTransform="matrix(0.6302549,0,0,0.687399,-5.2353515,-7.1227789)" gradientUnits="userSpaceOnUse" xlink:href="#linearGradient6364"/><linearGradient id="linearGradient5563" x1="26" x2="26" y1="24.406" y2="27.313" gradientTransform="matrix(0.4999998,0,0,1,-1.4999973,-15)" gradientUnits="userSpaceOnUse" xlink:href="#linearGradient6344"/><radialGradient id="radialGradient5575" cx="6.468" cy="5.607" r="19.998" fx="6.468" fy="5.607" gradientTransform="matrix(8.5136648e-2,0.4158133,-0.5511087,0.1368477,6.7977306,0.7810358)" gradientUnits="userSpaceOnUse" xlink:href="#linearGradient6334"/><radialGradient id="radialGradient5578" cx="14.375" cy="5.892" r="21" fx="14.375" fy="5.892" gradientTransform="matrix(0.4146341,0,0,0.3670635,1.0487803,2.1081349)" gradientUnits="userSpaceOnUse" xlink:href="#linearGradient6292"/><linearGradient id="linearGradient5582" x1="25.984" x2="25.984" y1="23.344" y2="30" gradientUnits="userSpaceOnUse" xlink:href="#linearGradient6268"/><radialGradient id="radialGradient5550" cx="14.375" cy="5.892" r="21" fx="14.375" fy="5.892" gradientTransform="matrix(0.4146341,0,0,0.3670635,1.0487803,2.1081349)" gradientUnits="userSpaceOnUse" xlink:href="#linearGradient6292"/><radialGradient id="radialGradient5552" cx="6.468" cy="5.607" r="19.998" fx="6.468" fy="5.607" gradientTransform="matrix(8.5136648e-2,0.4158133,-0.5511087,0.1368477,6.7977306,0.7810358)" gradientUnits="userSpaceOnUse" xlink:href="#linearGradient6334"/><linearGradient id="linearGradient5556" x1="25.984" x2="25.984" y1="23.344" y2="30" gradientUnits="userSpaceOnUse" xlink:href="#linearGradient6268"/><linearGradient id="linearGradient5558" x1="26" x2="26" y1="24.406" y2="27.313" gradientTransform="matrix(0.4999998,0,0,1,-1.4999973,-15)" gradientUnits="userSpaceOnUse" xlink:href="#linearGradient6344"/></defs><metadata id="metadata7"/><g id="layer1" style="display:inline"><path style="color:#000;display:inline;overflow:visible;visibility:visible;fill:#bebebe;fill-opacity:1;fill-rule:nonzero;stroke:none;stroke-width:2;marker:none;enable-background:accumulate" id="rect4665-8" d="M 2.1046121,0 C 0.94088232,0 0.00500348,0.90244658 0.00500348,2.0246045 L 0,13.975395 C 0,15.097553 0.93587889,16 2.0996085,16 l 12.0477545,0 c 0.595686,0 1.066467,-0.453964 1.066467,-1.02837 l -13.0808943,0 c -0.5908231,0 -1.0664679,-0.458654 -1.0664679,-1.028371 0,-0.569674 0.4756448,-0.574442 1.0664679,-0.574442 l 12.7976143,0 c 0.590823,0 1.11379,-0.460483 1.066468,-1.02837 L 15.997146,1.0283705 C 15.949827,0.46048366 15.521502,0 14.930679,0 Z m 5.3169207,3.01883 1.1581181,0 c 0.9530063,0 1.7371761,0.7581656 1.7371761,1.6771277 l 0,1.6751193 0.581141,0 c 0.321012,0 0.57906,0.250839 0.57906,0.5603817 l 0,0.2952548 0,3.0569925 -2.8973771,0 -1.1581181,0 -2.8973756,0 0,-3.0569925 0,-0.2952548 c 0,-0.3095427 0.2580478,-0.5603817 0.5790579,-0.5603817 l 0.5790589,0 0,-1.6751193 c 0,-0.9189621 0.7862525,-1.6771277 1.7392588,-1.6771277 z m 0,1.1187547 c -0.3310349,0 -0.5811418,0.2391638 -0.5811418,0.558373 l 0,1.6751193 2.3183188,0 0,-1.6751193 c 0,-0.3192092 -0.2480241,-0.558373 -0.5790589,-0.558373 z"/></g></svg>