<svg xmlns="http://www.w3.org/2000/svg" xmlns:svg="http://www.w3.org/2000/svg" xmlns:xlink="http://www.w3.org/1999/xlink" id="svg2" width="48" height="48" version="1.0"><defs id="defs4"><linearGradient id="linearGradient6364"><stop style="stop-color:#fff;stop-opacity:1" id="stop6366" offset="0"/><stop style="stop-color:#fff;stop-opacity:0" id="stop6368" offset="1"/></linearGradient><linearGradient id="linearGradient6344"><stop style="stop-color:#000;stop-opacity:1" id="stop6346" offset="0"/><stop style="stop-color:#000;stop-opacity:0" id="stop6348" offset="1"/></linearGradient><linearGradient id="linearGradient6334"><stop id="stop6336" offset="0" style="stop-color:#fff;stop-opacity:.30715936"/><stop id="stop6338" offset="1" style="stop-color:#fff;stop-opacity:1"/></linearGradient><linearGradient id="linearGradient6292"><stop id="stop6294" offset="0" style="stop-color:#f45959;stop-opacity:1"/><stop id="stop6296" offset="1" style="stop-color:#d50f0f;stop-opacity:1"/></linearGradient><linearGradient id="linearGradient6268"><stop style="stop-color:#fff;stop-opacity:1" id="stop6270" offset="0"/><stop style="stop-color:#fff;stop-opacity:0" id="stop6272" offset="1"/></linearGradient><linearGradient id="linearGradient6274" x1="25.984" x2="25.984" y1="23.344" y2="30" gradientUnits="userSpaceOnUse" xlink:href="#linearGradient6268"/><radialGradient id="radialGradient6290" cx="14.375" cy="5.892" r="21" fx="14.375" fy="5.892" gradientTransform="matrix(1,0,0,0.8809524,0,2.5595242)" gradientUnits="userSpaceOnUse" xlink:href="#linearGradient6292"/><filter id="filter6316" width="1.246" height="10.12" x="-.123" y="-4.56"><feGaussianBlur id="feGaussianBlur6318" stdDeviation="1.9"/></filter><filter id="filter6322" width="1.131" height="5.843" x="-.065" y="-2.422"><feGaussianBlur id="feGaussianBlur6324" stdDeviation="1.009"/></filter><radialGradient id="radialGradient6332" cx="6.468" cy="5.607" r="19.998" fx="6.468" fy="5.607" gradientTransform="matrix(0.2210006,1.0989351,-1.4305862,0.3616688,13.060358,-2.6858335)" gradientUnits="userSpaceOnUse" xlink:href="#linearGradient6334"/><linearGradient id="linearGradient6350" x1="26" x2="26" y1="24.406" y2="27.313" gradientUnits="userSpaceOnUse" xlink:href="#linearGradient6344"/><filter id="filter6358" width="1.28" height="2.68" x="-.14" y="-.84"><feGaussianBlur id="feGaussianBlur6360" stdDeviation=".7"/></filter><linearGradient id="linearGradient6370" x1="21.469" x2="26.582" y1="22" y2="27.344" gradientUnits="userSpaceOnUse" xlink:href="#linearGradient6364"/><filter id="filter6390"><feGaussianBlur id="feGaussianBlur6392" stdDeviation=".962"/></filter></defs><metadata id="metadata7"/><g id="layer2" style="display:inline"><image id="image5484" width="48" height="48" x="61" y="1" xlink:href="C:\Users\Cube\Downloads\diary.png"/></g><g id="layer1" style="display:inline"><path id="path6388" d="M 7.4785064,3.4999999 L 40.646494,3.4999999 C 41.707961,3.4999999 42.5625,4.2888051 42.5625,5.2686212 L 44.5,37.731378 C 44.5,38.711194 43.645461,39.499999 42.583994,39.499999 L 5.4160064,39.499999 C 4.3545389,39.499999 3.5,38.711194 3.5,37.731378 L 5.5625,5.2686212 C 5.5625,4.2888051 6.4170389,3.4999999 7.4785064,3.4999999 z" style="fill:#000;fill-opacity:1;fill-rule:evenodd;stroke:none;stroke-width:.99999987999999995px;stroke-linecap:butt;stroke-linejoin:miter;marker:none;marker-start:none;marker-mid:none;marker-end:none;stroke-miterlimit:4;stroke-dashoffset:0;stroke-opacity:1;visibility:visible;display:inline;overflow:visible;enable-background:accumulate;filter:url(#filter6390)"/><rect id="rect6320" width="37" height="1" x="6" y="43" transform="matrix(1.1351351,0,0,2,-3.8108106,-45)" style="opacity:1;fill:#000;fill-opacity:1;fill-rule:evenodd;stroke:none;stroke-width:1px;stroke-linecap:butt;stroke-linejoin:miter;marker:none;marker-start:none;marker-mid:none;marker-end:none;stroke-miterlimit:4;stroke-dasharray:none;stroke-dashoffset:0;stroke-opacity:1;visibility:visible;display:inline;overflow:visible;filter:url(#filter6322);enable-background:accumulate"/><path style="fill:url(#radialGradient6290);fill-opacity:1;fill-rule:evenodd;stroke:#a40000;stroke-width:.99999987999999995px;stroke-linecap:butt;stroke-linejoin:miter;marker:none;marker-start:none;marker-mid:none;marker-end:none;stroke-miterlimit:4;stroke-dashoffset:0;stroke-opacity:1;visibility:visible;display:inline;overflow:visible;enable-background:accumulate" id="rect5488" d="M 7.4785064,3.4999999 L 40.646494,3.4999999 C 41.707961,3.4999999 42.5625,4.2888051 42.5625,5.2686212 L 44.5,37.731378 C 44.5,38.711194 43.645461,39.499999 42.583994,39.499999 L 5.4160064,39.499999 C 4.3545389,39.499999 3.5,38.711194 3.5,37.731378 L 5.5625,5.2686212 C 5.5625,4.2888051 6.4170389,3.4999999 7.4785064,3.4999999 z"/><path style="opacity:.40000000000000002;fill:none;fill-opacity:1;fill-rule:evenodd;stroke:url(#radialGradient6332);stroke-width:1.0588729400000001px;stroke-linecap:butt;stroke-linejoin:miter;stroke-miterlimit:4;stroke-dashoffset:0;stroke-opacity:1;marker:none;marker-start:none;marker-mid:none;marker-end:none;visibility:visible;display:inline;overflow:visible;enable-background:accumulate" id="path6417" d="M 7.46875,4.5 C 6.9378576,4.5 6.5625,4.8753574 6.5625,5.40625 C 6.5631511,5.4270782 6.5631511,5.4479218 6.5625,5.46875 L 4.5,40.59375 C 4.5,41.124642 4.8753577,41.5 5.40625,41.5 L 42.53125,41.5 C 43.06214,41.5 43.4375,41.124638 43.4375,40.59375 L 41.5625,5.46875 C 41.561849,5.4479218 41.561849,5.4270782 41.5625,5.40625 C 41.5625,4.8753593 41.187139,4.5 40.65625,4.5 L 7.46875,4.5 z" transform="matrix(1,0,0,0.8918919,0,0.4864865)"/><rect style="opacity:1;fill:none;fill-opacity:1;fill-rule:evenodd;stroke:#2e3436;stroke-width:.99999987999999995px;stroke-linecap:butt;stroke-linejoin:miter;marker:none;marker-start:none;marker-mid:none;marker-end:none;stroke-miterlimit:4;stroke-dasharray:none;stroke-dashoffset:0;stroke-opacity:1;visibility:visible;display:inline;overflow:visible;enable-background:accumulate" id="rect5521" width="23" height=".033" x="20.126" y="24.469"/><path style="fill:#d3d7cf;fill-opacity:1;fill-rule:evenodd;stroke:#2e3436;stroke-width:1px;stroke-linecap:butt;stroke-linejoin:miter;marker:none;marker-start:none;marker-mid:none;marker-end:none;stroke-miterlimit:4;stroke-dashoffset:0;stroke-opacity:1;visibility:visible;display:inline;overflow:visible;enable-background:accumulate" id="rect6422" d="M 19.874666,17.5 L 42.864465,17.5 C 43.072029,17.5 43.23913,17.660138 43.23913,17.859054 L 43.5,23.140946 C 43.5,23.339862 43.332899,23.5 43.125335,23.5 L 19.874666,23.5 C 19.667101,23.5 19.500001,23.339862 19.500001,23.140946 L 19.500001,17.859054 C 19.500001,17.660138 19.667101,17.5 19.874666,17.5 z"/><path style="opacity:.5;fill:none;fill-opacity:1;fill-rule:evenodd;stroke:#fff;stroke-width:.97697532px;stroke-linecap:butt;stroke-linejoin:miter;marker:none;marker-start:none;marker-mid:none;marker-end:none;stroke-miterlimit:4;stroke-dashoffset:0;stroke-opacity:1;visibility:visible;display:inline;overflow:visible;enable-background:accumulate" id="path6427" d="M 21.5,18.5 L 21.5,22.5 L 42.46875,22.5 L 42.28125,18.5 L 21.5,18.5 z" transform="matrix(1.04769,0,0,1,-2.0253353,0)"/><rect style="opacity:1;fill:none;fill-opacity:1;fill-rule:evenodd;stroke:#2e3436;stroke-width:.99999994000000003px;stroke-linecap:butt;stroke-linejoin:miter;marker:none;marker-start:none;marker-mid:none;marker-end:none;stroke-miterlimit:4;stroke-dasharray:none;stroke-dashoffset:0;stroke-opacity:1;visibility:visible;display:inline;overflow:visible;enable-background:accumulate" id="rect6429" width="7" height="2" x="24.5" y="19.5" rx=".335" ry=".383"/><rect style="opacity:.3;fill:#000;fill-opacity:1;fill-rule:evenodd;stroke:none;stroke-width:.99999994px;stroke-linecap:butt;stroke-linejoin:miter;marker:none;marker-start:none;marker-mid:none;marker-end:none;stroke-miterlimit:4;stroke-dasharray:none;stroke-dashoffset:0;stroke-opacity:1;visibility:visible;display:inline;overflow:visible;filter:url(#filter6358);enable-background:accumulate" id="rect6352" width="12" height="2" x="20" y="30" transform="matrix(1.0000001,0,0,2,-1.8333333e-6,-32)"/><path style="fill:#eeeeec;fill-opacity:1;fill-rule:evenodd;stroke:#a40000;stroke-width:1px;stroke-linecap:butt;stroke-linejoin:miter;stroke-miterlimit:4;stroke-dashoffset:0;stroke-opacity:1;marker:none;marker-start:none;marker-mid:none;marker-end:none;visibility:visible;display:inline;overflow:visible;enable-background:accumulate" id="rect5501" d="M 4.932528,37.5 L 43.067472,37.5 C 43.861092,37.5 44.5,38.138908 44.5,38.932528 C 42.947521,39.746524 43.267727,40.459562 44.5,41.067472 C 44.5,41.861093 43.861092,42.5 43.067472,42.5 L 4.932528,42.5 C 4.1389074,42.5 3.4999998,41.861093 3.4999998,41.067472 L 3.4999998,38.932528 C 3.4999998,38.138908 4.1389074,37.5 4.932528,37.5 z"/><path style="fill:#fef5af;fill-opacity:1;fill-rule:evenodd;stroke:#edd400;stroke-width:.99999987999999995px;stroke-linecap:butt;stroke-linejoin:miter;marker:none;marker-start:none;marker-mid:none;marker-end:none;stroke-miterlimit:4;stroke-dashoffset:0;stroke-opacity:1;visibility:visible;display:inline;overflow:visible;enable-background:accumulate" id="rect5490" d="M 29.500001,18.5 L 27.508889,18.5 C 24.705932,19.401239 24.64237,21.148492 24.491112,22.5 L 22.500001,22.5 C 22.651633,20.183651 24.25517,16.572652 29.500001,18.5 z"/><path style="fill:#fdef7f;fill-opacity:1;fill-rule:evenodd;stroke:#edd400;stroke-width:.99999994000000003px;stroke-linecap:butt;stroke-linejoin:miter;marker:none;marker-start:none;marker-mid:none;marker-end:none;stroke-miterlimit:4;stroke-dashoffset:0;stroke-opacity:1;visibility:visible;display:inline;overflow:visible;enable-background:accumulate" id="rect6431" d="M 22.100942,22.5 L 29.774058,22.5 C 29.89923,22.5 30,22.665638 30,22.871385 L 30.5,30.128615 C 30.5,30.334362 30.39923,30.5 30.274058,30.5 L 21.725942,30.5 C 21.60077,30.5 21.5,30.334362 21.5,30.128615 L 21.875,22.871385 C 21.875,22.665638 21.97577,22.5 22.100942,22.5 z"/><path style="fill:none;fill-opacity:1;fill-rule:evenodd;stroke:url(#linearGradient6274);stroke-width:.99999994000000003px;stroke-linecap:butt;stroke-linejoin:miter;marker:none;marker-start:none;marker-mid:none;marker-end:none;stroke-miterlimit:4;stroke-dashoffset:0;stroke-opacity:1;visibility:visible;display:inline;overflow:visible;enable-background:accumulate" id="path5496" d="M 22.84375,23.5 L 22.53125,29.5 L 29.4375,29.5 L 29.03125,23.5 L 22.84375,23.5 z"/><rect style="opacity:1;fill:#000;fill-opacity:1;fill-rule:evenodd;stroke:none;stroke-width:1px;stroke-linecap:butt;stroke-linejoin:miter;marker:none;marker-start:none;marker-mid:none;marker-end:none;stroke-miterlimit:4;stroke-dasharray:none;stroke-dashoffset:0;stroke-opacity:1;visibility:visible;display:inline;overflow:visible;enable-background:accumulate;filter:url(#filter6316)" id="rect6310" width="37" height="1" x="5" y="38"/><rect style="opacity:1;fill:url(#linearGradient6350);fill-opacity:1;fill-rule:evenodd;stroke:none;stroke-width:.99999994000000003px;stroke-linecap:butt;stroke-linejoin:miter;marker:none;marker-start:none;marker-mid:none;marker-end:none;stroke-miterlimit:4;stroke-dasharray:none;stroke-dashoffset:0;stroke-opacity:1;visibility:visible;display:inline;overflow:visible;enable-background:accumulate" id="rect6342" width="2" height="2" x="25" y="25"/><rect style="opacity:1;fill:none;fill-opacity:1;fill-rule:evenodd;stroke:#c4a000;stroke-width:.99999981999999998px;stroke-linecap:butt;stroke-linejoin:miter;marker:none;marker-start:none;marker-mid:none;marker-end:none;stroke-miterlimit:4;stroke-dasharray:none;stroke-dashoffset:0;stroke-opacity:1;visibility:visible;display:inline;overflow:visible;enable-background:accumulate" id="rect5523" width="8" height="1" x="22" y="30.484"/></g></svg>