<svg xmlns="http://www.w3.org/2000/svg" xmlns:svg="http://www.w3.org/2000/svg" xmlns:xlink="http://www.w3.org/1999/xlink" id="svg2" width="256" height="256" version="1.0"><defs id="defs4"><linearGradient id="linearGradient3818"><stop id="stop3820" offset="0" style="stop-color:#c4a000;stop-opacity:1"/><stop id="stop3822" offset="1" style="stop-color:#896e02;stop-opacity:1"/></linearGradient><linearGradient id="linearGradient3810"><stop style="stop-color:#c4a000;stop-opacity:1" id="stop3812" offset="0"/><stop style="stop-color:#c4a000;stop-opacity:0" id="stop3814" offset="1"/></linearGradient><linearGradient id="linearGradient6364"><stop style="stop-color:#fff;stop-opacity:1" id="stop6366" offset="0"/><stop style="stop-color:#fff;stop-opacity:0" id="stop6368" offset="1"/></linearGradient><linearGradient id="linearGradient6344"><stop style="stop-color:#000;stop-opacity:1" id="stop6346" offset="0"/><stop style="stop-color:#000;stop-opacity:0" id="stop6348" offset="1"/></linearGradient><linearGradient id="linearGradient6334"><stop id="stop6336" offset="0" style="stop-color:#fff;stop-opacity:.30715936"/><stop id="stop6338" offset="1" style="stop-color:#fff;stop-opacity:1"/></linearGradient><linearGradient id="linearGradient6292"><stop id="stop6294" offset="0" style="stop-color:#f45959;stop-opacity:1"/><stop id="stop6296" offset="1" style="stop-color:#d50f0f;stop-opacity:1"/></linearGradient><linearGradient id="linearGradient6268"><stop style="stop-color:#fff;stop-opacity:1" id="stop6270" offset="0"/><stop style="stop-color:#fff;stop-opacity:0" id="stop6272" offset="1"/></linearGradient><linearGradient id="linearGradient6274" x1="25.984" x2="25.984" y1="23.344" y2="30" gradientTransform="matrix(0.97287011,0,0,0.97285977,0.74121188,-0.13424319)" gradientUnits="userSpaceOnUse" xlink:href="#linearGradient6268"/><radialGradient id="radialGradient6290" cx="14.375" cy="5.892" r="21" fx="14.375" fy="5.892" gradientTransform="matrix(5.3991708,0,0,4.7564124,-1.1050626,-196.65077)" gradientUnits="userSpaceOnUse" xlink:href="#linearGradient6292"/><filter id="filter6316" width="1.246" height="10.12" x="-.123" y="-4.56" color-interpolation-filters="sRGB"><feGaussianBlur id="feGaussianBlur6318" stdDeviation="1.9"/></filter><filter id="filter6322" width="1.131" height="5.843" x="-.065" y="-2.422" color-interpolation-filters="sRGB"><feGaussianBlur id="feGaussianBlur6324" stdDeviation="1.009"/></filter><radialGradient id="radialGradient6332" cx="6.468" cy="5.607" r="19.998" fx="6.468" fy="5.607" gradientTransform="matrix(1.1905452,5.2920734,-7.7066651,1.741666,69.780677,-220.78118)" gradientUnits="userSpaceOnUse" xlink:href="#linearGradient6334"/><linearGradient id="linearGradient6350" x1="26" x2="26" y1="24.406" y2="27.313" gradientTransform="matrix(5.3991705,0,0,5.3991705,-1.1050625,-210.47008)" gradientUnits="userSpaceOnUse" xlink:href="#linearGradient6344"/><filter id="filter6358" width="1.28" height="2.68" x="-.14" y="-.84" color-interpolation-filters="sRGB"><feGaussianBlur id="feGaussianBlur6360" stdDeviation=".7"/></filter><linearGradient id="linearGradient6370" x1="21.469" x2="26.582" y1="22" y2="27.344" gradientUnits="userSpaceOnUse" xlink:href="#linearGradient6364"/><filter id="filter6390" color-interpolation-filters="sRGB"><feGaussianBlur id="feGaussianBlur6392" stdDeviation=".962"/></filter><linearGradient id="linearGradient3816" x1="25.686" x2="25.721" y1="29.891" y2="32.047" gradientTransform="matrix(5.4724035,0,0,4.1521261,-3.0091169,-172.75917)" gradientUnits="userSpaceOnUse" xlink:href="#linearGradient3818"/><radialGradient id="radialGradient3668" cx="14.375" cy="5.892" r="21" fx="14.375" fy="5.892" gradientTransform="matrix(5.6273827,0,0,4.9574562,-6.5870422,-195.24456)" gradientUnits="userSpaceOnUse" xlink:href="#linearGradient6292"/><radialGradient id="radialGradient3670" cx="6.468" cy="5.607" r="19.998" fx="6.468" fy="5.607" gradientTransform="matrix(1.2408671,5.5157585,-8.03241,1.8152826,67.294891,-220.39492)" gradientUnits="userSpaceOnUse" xlink:href="#linearGradient6334"/><linearGradient id="linearGradient3672" x1="25.984" x2="25.984" y1="23.344" y2="30" gradientTransform="matrix(1.0139913,0,0,1.0139806,-0.24657947,0.01388655)" gradientUnits="userSpaceOnUse" xlink:href="#linearGradient6268"/><linearGradient id="linearGradient3674" x1="26" x2="26" y1="24.406" y2="27.313" gradientTransform="matrix(5.6273823,0,0,5.6273823,-6.5870421,-209.64799)" gradientUnits="userSpaceOnUse" xlink:href="#linearGradient6344"/><linearGradient id="linearGradient3676" x1="25.686" x2="25.721" y1="29.891" y2="32.047" gradientTransform="matrix(5.7037108,0,0,4.3276279,-8.5715769,-170.34311)" gradientUnits="userSpaceOnUse" xlink:href="#linearGradient3818"/></defs><metadata id="metadata7"/><g id="layer2" transform="translate(0,208)" style="display:inline"><image id="image5484" width="256" height="256" x="283.657" y="-207.153" xlink:href="./almanah.png"/></g><g id="layer1" transform="translate(0,208)" style="display:inline"><g id="g3650" transform="matrix(0.95944618,0,0,0.95944618,5.2148497,-9.3241162)"><path style="fill:#000;fill-opacity:1;fill-rule:evenodd;stroke:none;stroke-width:.99999988px;marker:none;visibility:visible;display:inline;overflow:visible;filter:url(#filter6390);enable-background:accumulate" id="path6388" d="m 7.4785064,3.4999999 33.1679876,0 c 1.061467,0 1.916006,0.7888052 1.916006,1.7686213 L 44.5,37.731378 c 0,0.979816 -0.854539,1.768621 -1.916006,1.768621 l -37.1679876,0 C 4.3545389,39.499999 3.5,38.711194 3.5,37.731378 L 5.5625,5.2686212 c 0,-0.9798161 0.8545389,-1.7686213 1.9160064,-1.7686213 z" transform="matrix(5.5497342,0,0,5.5497932,-5.2185912,-209.72506)"/><rect style="fill:#000;fill-opacity:1;fill-rule:evenodd;stroke:none;stroke-width:1px;marker:none;visibility:visible;display:inline;overflow:visible;filter:url(#filter6322);enable-background:accumulate" id="rect6320" width="37" height="1" x="6" y="43" transform="matrix(6.2996981,0,0,11.099586,-26.367577,-459.46575)"/><path id="rect5488" d="m 36.285134,-190.30078 184.073526,0 c 5.89086,0 10.63332,4.3777 10.63332,9.81548 L 241.91802,3.7616928 c 0.18237,3.431759 -4.89067,5.4526497 -10.80675,5.7300783 l -206.272463,0 L 14.328112,3.7845412 25.897073,-176.80627 c 0,-5.43778 4.497198,-13.49451 10.388061,-13.49451 z" style="fill:url(#radialGradient3668);fill-opacity:1;fill-rule:evenodd;stroke:#a40000;stroke-width:5.6273818px;stroke-linecap:butt;stroke-linejoin:miter;stroke-miterlimit:4;stroke-opacity:1;stroke-dashoffset:0;marker:none;visibility:visible;display:inline;overflow:visible;enable-background:accumulate"/><path id="path6417" d="m 36.589548,-184.81537 c -2.259424,-0.001 -4.276474,3.89669 -4.951182,6.62468 -0.04077,0.16482 -0.205265,-0.096 -0.189623,1.91096 L 20.24268,-4.2510881 c 0,2.6279052 2.078467,2.6463471 5.018173,2.6463471 L 236.14457,-1.46866 c -0.18744,-1.1650238 -10.67593,-178.4901 -10.67593,-178.4901 -0.004,-0.1031 -0.004,-0.20628 0,-0.30938 0,-2.6279 -2.07849,-4.48591 -5.01817,-4.48591 z" style="opacity:.4;fill:none;stroke:url(#radialGradient3670);stroke-width:5.6211648px;stroke-linecap:butt;stroke-linejoin:miter;stroke-miterlimit:4;stroke-opacity:1;stroke-dashoffset:0;marker:none;visibility:visible;display:inline;overflow:visible;enable-background:accumulate"/><rect id="rect5521" width="125.053" height=".235" x="106.817" y="-74.322" style="fill:none;stroke:#2e3436;stroke-width:6.32184982;stroke-linecap:butt;stroke-linejoin:miter;stroke-miterlimit:4;stroke-opacity:1;stroke-dasharray:none;stroke-dashoffset:0;marker:none;visibility:visible;display:inline;overflow:visible;enable-background:accumulate"/><path id="rect6422" d="m 105.08053,-112.60367 127.58728,0 c 1.15193,0 2.07929,0.88873 2.07929,1.99267 l 1.44775,29.313408 c 0,1.103942 -0.92736,1.992676 -2.07929,1.992676 l -129.03503,0 c -1.15193,0 -2.07929,-0.888734 -2.07929,-1.992676 l 0,-29.313408 c 0,-1.10394 0.92736,-1.99267 2.07929,-1.99267 z" style="fill:#d3d7cf;fill-opacity:1;fill-rule:evenodd;stroke:#2e3436;stroke-width:5.62738276px;stroke-linecap:butt;stroke-linejoin:miter;stroke-miterlimit:4;stroke-opacity:1;stroke-dashoffset:0;marker:none;visibility:visible;display:inline;overflow:visible;enable-background:accumulate"/><path id="path6427" d="m 21.5,18.5 0,4 20.96875,0 -0.1875,-4 -20.78125,0 z" transform="matrix(5.8144011,0,0,5.5497932,-16.458664,-209.72506)" style="opacity:.5;fill:none;stroke:#fff;stroke-width:.99063921px;stroke-linecap:butt;stroke-linejoin:miter;stroke-miterlimit:4;stroke-opacity:1;stroke-dashoffset:0;marker:none;visibility:visible;display:inline;overflow:visible;enable-background:accumulate"/><rect id="rect6429" width="38.848" height="11.1" x="130.75" y="-101.504" rx="1.886" ry="2.155" style="fill:none;stroke:#2e3436;stroke-width:5.62738276px;stroke-linecap:butt;stroke-linejoin:miter;stroke-miterlimit:4;stroke-opacity:1;stroke-dasharray:none;stroke-dashoffset:0;marker:none;visibility:visible;display:inline;overflow:visible;enable-background:accumulate"/><rect id="rect6352" width="12" height="2" x="20" y="30" transform="matrix(5.5497348,0,0,11.099586,-5.2186014,-387.31843)" style="opacity:.3;fill:#000;fill-opacity:1;fill-rule:evenodd;stroke:none;stroke-width:.99999994px;marker:none;visibility:visible;display:inline;overflow:visible;filter:url(#filter6358);enable-background:accumulate"/><path id="rect5501" d="m 22.155629,-1.60781 211.638811,0 c 4.40438,0 8.99253,4.9561043 7.95016,7.9502344 -3.46452,5.2155906 -1.75494,8.1278606 0,11.8484986 1.165,2.575437 -3.54578,7.950233 -7.95016,7.950233 l -211.638811,0 c -4.404383,0 -7.950151,-3.545801 -7.950151,-7.950233 l 0,-11.8484986 c 0,-4.4044271 3.545768,-7.9502344 7.950151,-7.9502344 z" style="fill:#eeeeec;fill-opacity:1;fill-rule:evenodd;stroke:#a40000;stroke-width:5.62738276px;stroke-linecap:butt;stroke-linejoin:miter;stroke-miterlimit:4;stroke-opacity:1;stroke-dashoffset:0;marker:none;visibility:visible;display:inline;overflow:visible;enable-background:accumulate"/><path id="rect5490" d="m 158.49858,-107.05388 -11.05014,0 c -15.55567,5.00169 -15.90842,14.69858 -16.74786,22.19917 l -11.05014,0 c 0.84152,-12.855255 9.74073,-32.89555 38.84814,-22.19917 z" style="fill:#fef5af;fill-opacity:1;fill-rule:evenodd;stroke:#edd400;stroke-width:5.6273818px;stroke-linecap:butt;stroke-linejoin:miter;stroke-miterlimit:4;stroke-opacity:1;stroke-dashoffset:0;marker:none;visibility:visible;display:inline;overflow:visible;enable-background:accumulate"/><path id="rect6431" d="m 117.49175,-84.7901 42.47359,0 c 0.69288,0 1.25067,0.965054 1.25067,2.163798 l 2.76769,42.282849 c 0,1.198744 -0.55779,2.163804 -1.25067,2.163804 l -47.31705,0 c -0.69287,0 -1.25067,-0.96506 -1.25067,-2.163804 l 2.07576,-42.282849 c 0,-1.198744 0.55781,-2.163798 1.25068,-2.163798 z" style="fill:#fdef7f;fill-opacity:1;fill-rule:evenodd;stroke:#edd400;stroke-width:5.75840425px;stroke-linecap:butt;stroke-linejoin:miter;stroke-miterlimit:4;stroke-opacity:1;stroke-dashoffset:0;marker:none;visibility:visible;display:inline;overflow:visible;enable-background:accumulate"/><path id="path5496" d="m 22.84375,23.5 -0.3125,6 6.90625,0 -0.40625,-6 -6.1875,0 z" transform="matrix(5.5497342,0,0,5.5497932,-5.2185912,-209.72506)" style="fill:none;stroke:url(#linearGradient3672);stroke-width:1.01398587px;stroke-linecap:butt;stroke-linejoin:miter;stroke-miterlimit:4;stroke-opacity:1;stroke-dashoffset:0;marker:none;visibility:visible;display:inline;overflow:visible;enable-background:accumulate"/><rect id="rect6310" width="37" height="1" x="5" y="38" transform="matrix(5.5497342,0,0,5.5497932,-5.2185912,-209.72506)" style="fill:#000;fill-opacity:1;fill-rule:evenodd;stroke:none;stroke-width:1px;marker:none;visibility:visible;display:inline;overflow:visible;filter:url(#filter6316);enable-background:accumulate"/><rect id="rect6342" width="11.099" height="11.1" x="133.525" y="-70.98" style="fill:url(#linearGradient3674);fill-opacity:1;fill-rule:evenodd;stroke:none;stroke-width:.99999994px;marker:none;visibility:visible;display:inline;overflow:visible;enable-background:accumulate"/><rect id="rect5523" width="50.43" height="4.105" x="113.859" y="-40.775" style="fill:none;stroke:url(#linearGradient3676);stroke-width:5.15803528;stroke-linecap:butt;stroke-linejoin:round;stroke-miterlimit:4;stroke-opacity:1;stroke-dasharray:none;stroke-dashoffset:0;marker:none;visibility:visible;display:inline;overflow:visible;enable-background:accumulate"/></g></g></svg>