<svg xmlns="http://www.w3.org/2000/svg" xmlns:svg="http://www.w3.org/2000/svg" xmlns:xlink="http://www.w3.org/1999/xlink" id="svg2" width="32" height="32" version="1.0"><defs id="defs4"><linearGradient id="linearGradient6364"><stop style="stop-color:#fff;stop-opacity:1" id="stop6366" offset="0"/><stop style="stop-color:#fff;stop-opacity:0" id="stop6368" offset="1"/></linearGradient><linearGradient id="linearGradient6344"><stop style="stop-color:#000;stop-opacity:1" id="stop6346" offset="0"/><stop style="stop-color:#000;stop-opacity:0" id="stop6348" offset="1"/></linearGradient><linearGradient id="linearGradient6334"><stop id="stop6336" offset="0" style="stop-color:#fff;stop-opacity:.30715936"/><stop id="stop6338" offset="1" style="stop-color:#fff;stop-opacity:1"/></linearGradient><linearGradient id="linearGradient6292"><stop id="stop6294" offset="0" style="stop-color:#f66a6a;stop-opacity:1"/><stop id="stop6296" offset="1" style="stop-color:#d50f0f;stop-opacity:1"/></linearGradient><linearGradient id="linearGradient6268"><stop style="stop-color:#fff;stop-opacity:1" id="stop6270" offset="0"/><stop style="stop-color:#fff;stop-opacity:0" id="stop6272" offset="1"/></linearGradient><linearGradient id="linearGradient6274" x1="25.984" x2="25.984" y1="23.344" y2="30" gradientUnits="userSpaceOnUse" xlink:href="#linearGradient6268"/><radialGradient id="radialGradient6290" cx="14.375" cy="5.892" r="21" fx="14.375" fy="5.892" gradientTransform="matrix(1,0,0,0.8809524,0,2.5595242)" gradientUnits="userSpaceOnUse" xlink:href="#linearGradient6292"/><filter id="filter6316" width="1.246" height="10.12" x="-.123" y="-4.56"><feGaussianBlur id="feGaussianBlur6318" stdDeviation="1.9"/></filter><filter id="filter6322" width="1.131" height="5.843" x="-.065" y="-2.422"><feGaussianBlur id="feGaussianBlur6324" stdDeviation="1.009"/></filter><radialGradient id="radialGradient6332" cx="6.468" cy="5.607" r="19.998" fx="6.468" fy="5.607" gradientTransform="matrix(0.2210006,1.0989351,-1.4305862,0.3616688,13.060358,-2.6858335)" gradientUnits="userSpaceOnUse" xlink:href="#linearGradient6334"/><linearGradient id="linearGradient6350" x1="26" x2="26" y1="24.406" y2="27.313" gradientUnits="userSpaceOnUse" xlink:href="#linearGradient6344"/><filter id="filter6358" width="1.28" height="2.68" x="-.14" y="-.84"><feGaussianBlur id="feGaussianBlur6360" stdDeviation=".7"/></filter><linearGradient id="linearGradient6370" x1="21.469" x2="26.582" y1="22" y2="27.344" gradientUnits="userSpaceOnUse" xlink:href="#linearGradient6364"/><filter id="filter6390"><feGaussianBlur id="feGaussianBlur6392" stdDeviation=".962"/></filter><radialGradient id="radialGradient5540" cx="14.375" cy="5.892" r="21" fx="14.375" fy="5.892" gradientTransform="matrix(1,0,0,0.8809524,0,2.5595242)" gradientUnits="userSpaceOnUse" xlink:href="#linearGradient6292"/><radialGradient id="radialGradient5542" cx="6.468" cy="5.607" r="19.998" fx="6.468" fy="5.607" gradientTransform="matrix(0.2210006,1.0989351,-1.4305862,0.3616688,13.060358,-2.6858335)" gradientUnits="userSpaceOnUse" xlink:href="#linearGradient6334"/><linearGradient id="linearGradient5544" x1="25.984" x2="25.984" y1="23.344" y2="30" gradientUnits="userSpaceOnUse" xlink:href="#linearGradient6268"/><linearGradient id="linearGradient5546" x1="26" x2="26" y1="24.406" y2="27.313" gradientUnits="userSpaceOnUse" xlink:href="#linearGradient6344"/><linearGradient id="linearGradient5548" x1="21.469" x2="26.582" y1="22" y2="27.344" gradientUnits="userSpaceOnUse" xlink:href="#linearGradient6364"/><linearGradient id="linearGradient5551" x1="21.469" x2="26.582" y1="22" y2="27.344" gradientTransform="matrix(0.6302549,0,0,0.6686395,0.7646476,0.2721762)" gradientUnits="userSpaceOnUse" xlink:href="#linearGradient6364"/><linearGradient id="linearGradient5554" x1="26" x2="26" y1="24.406" y2="27.313" gradientTransform="matrix(0.4979819,0,0,1.0197734,4.5504528,-8.5338833)" gradientUnits="userSpaceOnUse" xlink:href="#linearGradient6344"/><radialGradient id="radialGradient5566" cx="6.468" cy="5.607" r="19.998" fx="6.468" fy="5.607" gradientTransform="matrix(0.1418944,0.6534209,-0.9185144,0.2150464,8.9962169,-0.772658)" gradientUnits="userSpaceOnUse" xlink:href="#linearGradient6334"/><radialGradient id="radialGradient5569" cx="14.375" cy="5.892" r="21" fx="14.375" fy="5.892" gradientTransform="matrix(0.6585366,0,0,0.5878349,0.1951221,1.8724468)" gradientUnits="userSpaceOnUse" xlink:href="#linearGradient6292"/><linearGradient id="linearGradient5573" x1="25.984" x2="25.984" y1="23.344" y2="30" gradientUnits="userSpaceOnUse" xlink:href="#linearGradient6268"/></defs><metadata id="metadata7"/><g id="layer1" style="display:inline"><path id="path6388" d="M 7.4785064,3.4999999 L 40.646494,3.4999999 C 41.707961,3.4999999 42.5625,4.2888051 42.5625,5.2686212 L 44.5,37.731378 C 44.5,38.711194 43.645461,39.499999 42.583994,39.499999 L 5.4160064,39.499999 C 4.3545389,39.499999 3.5,38.711194 3.5,37.731378 L 5.5625,5.2686212 C 5.5625,4.2888051 6.4170389,3.4999999 7.4785064,3.4999999 z" transform="matrix(0.6594027,0,0,0.6594027,0.1920907,0.4753853)" style="fill:#000;fill-opacity:1;fill-rule:evenodd;stroke:none;stroke-width:.99999988px;stroke-linecap:butt;stroke-linejoin:miter;marker:none;marker-start:none;marker-mid:none;marker-end:none;stroke-miterlimit:4;stroke-dashoffset:0;stroke-opacity:1;visibility:visible;display:inline;overflow:visible;filter:url(#filter6390);enable-background:accumulate"/><rect id="rect6320" width="37" height="1" x="6" y="43" transform="matrix(0.7485111,0,0,1.3188054,-2.3207681,-29.197736)" style="fill:#000;fill-opacity:1;fill-rule:evenodd;stroke:none;stroke-width:1px;stroke-linecap:butt;stroke-linejoin:miter;marker:none;marker-start:none;marker-mid:none;marker-end:none;stroke-miterlimit:4;stroke-dasharray:none;stroke-dashoffset:0;stroke-opacity:1;visibility:visible;display:inline;overflow:visible;filter:url(#filter6322);enable-background:accumulate"/><path style="fill:url(#radialGradient5569);fill-opacity:1;fill-rule:evenodd;stroke:#a40000;stroke-width:.99999982px;stroke-linecap:butt;stroke-linejoin:miter;marker:none;marker-start:none;marker-mid:none;marker-end:none;stroke-miterlimit:4;stroke-dashoffset:0;stroke-opacity:1;visibility:visible;display:inline;overflow:visible;enable-background:accumulate" id="rect5488" d="M 5.1199921,2.4999999 L 26.962325,2.4999999 C 27.66134,2.4999999 28.224085,3.0263476 28.224085,3.6801514 L 29.5,25.341641 C 29.5,25.995444 28.937255,26.521791 28.238239,26.521791 L 3.7617604,26.521791 C 3.0627452,26.521791 2.5000001,25.995444 2.5000001,25.341641 L 3.8582318,3.6801514 C 3.8582318,3.0263476 4.420977,2.4999999 5.1199921,2.4999999 z"/><path style="opacity:.4;fill:none;fill-opacity:1;fill-rule:evenodd;stroke:url(#radialGradient5566);stroke-width:.99999976px;stroke-linecap:butt;stroke-linejoin:miter;marker:none;marker-start:none;marker-mid:none;marker-end:none;stroke-miterlimit:4;stroke-dashoffset:0;stroke-opacity:1;visibility:visible;display:inline;overflow:visible;enable-background:accumulate" id="path6417" d="M 5.4060994,3.5 C 5.0652375,3.5 4.8242374,3.7231854 4.8242374,4.0388514 C 4.8246555,4.0512358 4.8246555,4.0636292 4.8242374,4.0760135 L 3.4999999,24.961149 C 3.4999999,25.276815 3.741,25.500001 4.0818618,25.500001 L 27.918138,25.500001 C 28.258998,25.500001 28.5,25.276812 28.5,24.961149 L 27.296147,4.0760135 C 27.29573,4.0636292 27.29573,4.0512358 27.296147,4.0388514 C 27.296147,3.7231866 27.055145,3.5 26.714286,3.5 L 5.4060994,3.5 z"/><path style="fill:#d3d7cf;fill-opacity:1;fill-rule:evenodd;stroke:#2e3436;stroke-width:.99999994px;stroke-linecap:butt;stroke-linejoin:miter;marker:none;marker-start:none;marker-mid:none;marker-end:none;stroke-miterlimit:4;stroke-dashoffset:0;stroke-opacity:1;visibility:visible;display:inline;overflow:visible;enable-background:accumulate" id="rect6422" d="M 12.749777,12.5 L 28.076311,12.5 C 28.214687,12.5 28.326088,12.606758 28.326088,12.739369 L 28.5,16.260632 C 28.5,16.393242 28.3886,16.500002 28.250224,16.500002 L 12.749777,16.500002 C 12.6114,16.500002 12.5,16.393242 12.5,16.260632 L 12.5,12.739369 C 12.5,12.606758 12.6114,12.5 12.749777,12.5 z"/><path style="opacity:.5;fill:none;fill-opacity:1;fill-rule:evenodd;stroke:#fff;stroke-width:1.73076141px;stroke-linecap:butt;stroke-linejoin:miter;marker:none;marker-start:none;marker-mid:none;marker-end:none;stroke-miterlimit:4;stroke-dashoffset:0;stroke-opacity:1;visibility:visible;display:inline;overflow:visible;enable-background:accumulate" id="path6427" d="M 21.5,18.5 L 21.5,22.5 L 42.46875,22.5 L 42.28125,18.5 L 21.5,18.5 z" transform="matrix(0.6676602,0,0,0.5000002,-0.8546927,4.2499961)"/><rect style="fill:none;fill-opacity:1;fill-rule:evenodd;stroke:#2e3436;stroke-width:.99999976px;stroke-linecap:butt;stroke-linejoin:miter;marker:none;marker-start:none;marker-mid:none;marker-end:none;stroke-miterlimit:4;stroke-dasharray:none;stroke-dashoffset:0;stroke-opacity:1;visibility:visible;display:inline;overflow:visible;enable-background:accumulate" id="rect6429" width="4" height="2" x="16.5" y="13.5" rx=".191" ry=".383"/><rect style="opacity:.3;fill:#000;fill-opacity:1;fill-rule:evenodd;stroke:none;stroke-width:.99999994px;stroke-linecap:butt;stroke-linejoin:miter;marker:none;marker-start:none;marker-mid:none;marker-end:none;stroke-miterlimit:4;stroke-dasharray:none;stroke-dashoffset:0;stroke-opacity:1;visibility:visible;display:inline;overflow:visible;filter:url(#filter6358);enable-background:accumulate" id="rect6352" width="12" height="2" x="20" y="30" transform="matrix(0.7500001,0,0,1.5,-2.0000019,-26)"/><rect style="opacity:1;fill:none;fill-opacity:1;fill-rule:evenodd;stroke:#2e3436;stroke-width:.5;stroke-linecap:butt;stroke-linejoin:miter;marker:none;marker-start:none;marker-mid:none;marker-end:none;stroke-miterlimit:4;stroke-dasharray:none;stroke-dashoffset:0;stroke-opacity:1;visibility:visible;display:inline;overflow:visible;enable-background:accumulate" id="rect5531" width="16.5" height=".022" x="12.25" y="17.25"/><path style="fill:#fef18f;fill-opacity:1;fill-rule:evenodd;stroke:#edd400;stroke-width:.99999976000000002px;stroke-linecap:butt;stroke-linejoin:miter;marker:none;marker-start:none;marker-mid:none;marker-end:none;stroke-miterlimit:4;stroke-dashoffset:0;stroke-opacity:1;visibility:visible;display:inline;overflow:visible;enable-background:accumulate" id="rect6431" d="M 14.900629,15.5 L 20.016039,15.5 C 20.099486,15.5 20.166666,15.603524 20.166666,15.732115 L 20.499999,20.267884 C 20.499999,20.396476 20.432819,20.500001 20.349372,20.500001 L 14.650629,20.500001 C 14.56718,20.500001 14.5,20.396476 14.5,20.267884 L 14.75,15.732115 C 14.75,15.603524 14.81718,15.5 14.900629,15.5 z"/><path style="fill:#eeeeec;fill-opacity:1;fill-rule:evenodd;stroke:#a40000;stroke-width:.99999982px;stroke-linecap:butt;stroke-linejoin:miter;marker:none;marker-start:none;marker-mid:none;marker-end:none;stroke-miterlimit:4;stroke-dashoffset:0;stroke-opacity:1;visibility:visible;display:inline;overflow:visible;enable-background:accumulate" id="rect5501" d="M 3.4433722,25.499999 L 28.556628,25.499999 C 29.079255,25.499999 29.5,25.883342 29.5,26.359513 C 28.477635,26.847909 28.688503,27.275731 29.5,27.640475 C 29.5,28.116646 29.079255,28.499989 28.556628,28.499989 L 3.4433722,28.499989 C 2.920744,28.499989 2.5,28.116646 2.5,27.640475 L 2.5,26.359513 C 2.5,25.883342 2.920744,25.499999 3.4433722,25.499999 z"/><path style="fill:#fce94f;fill-opacity:1;fill-rule:evenodd;stroke:#edd400;stroke-width:.99999987999999995px;stroke-linecap:butt;stroke-linejoin:miter;marker:none;marker-start:none;marker-mid:none;marker-end:none;stroke-miterlimit:4;stroke-dashoffset:0;stroke-opacity:1;visibility:visible;display:inline;overflow:visible;enable-background:accumulate" id="rect5490" d="M 19.5,12.860612 L 18.362221,12.860612 C 16.760531,13.455293 16.72421,14.608212 16.637777,15.5 L 15.499999,15.5 C 15.586646,13.971564 16.502952,11.588858 19.5,12.860612 z"/><path style="fill:none;fill-opacity:1;fill-rule:evenodd;stroke:url(#linearGradient5573);stroke-width:1.85825765px;stroke-linecap:butt;stroke-linejoin:miter;marker:none;marker-start:none;marker-mid:none;marker-end:none;stroke-miterlimit:4;stroke-dashoffset:0;stroke-opacity:1;visibility:visible;display:inline;overflow:visible;enable-background:accumulate" id="path5496" d="M 22.84375,23.5 L 22.53125,29.5 L 29.4375,29.5 L 29.03125,23.5 L 22.84375,23.5 z" transform="matrix(0.5791857,0,0,0.5000002,2.4502231,4.7499942)"/><rect style="fill:#000;fill-opacity:1;fill-rule:evenodd;stroke:none;stroke-width:1px;stroke-linecap:butt;stroke-linejoin:miter;marker:none;marker-start:none;marker-mid:none;marker-end:none;stroke-miterlimit:4;stroke-dasharray:none;stroke-dashoffset:0;stroke-opacity:1;visibility:visible;display:inline;overflow:visible;filter:url(#filter6316);enable-background:accumulate" id="rect6310" width="37" height="1" x="5" y="38" transform="matrix(0.6594027,0,0,1.0000002,0.3050866,-13.000008)"/><rect style="fill:url(#linearGradient5554);fill-opacity:1;fill-rule:evenodd;stroke:none;stroke-width:.99999994px;stroke-linecap:butt;stroke-linejoin:miter;marker:none;marker-start:none;marker-mid:none;marker-end:none;stroke-miterlimit:4;stroke-dasharray:none;stroke-dashoffset:0;stroke-opacity:1;visibility:visible;display:inline;overflow:visible;enable-background:accumulate" id="rect6342" width=".996" height="2.04" x="17" y="16.96"/><rect style="opacity:1;fill:none;fill-opacity:1;fill-rule:evenodd;stroke:#907500;stroke-width:1;stroke-linecap:square;stroke-linejoin:round;marker:none;marker-start:none;marker-mid:none;marker-end:none;stroke-miterlimit:4;stroke-dasharray:none;stroke-dashoffset:0;stroke-opacity:1;visibility:visible;display:inline;overflow:visible;enable-background:accumulate" id="rect5530" width="6" height="0" x="14.5" y="-21.5" transform="scale(1,-1)"/></g></svg>